<svg xmlns="http://www.w3.org/2000/svg" version="1.1" xmlns:xlink="http://www.w3.org/1999/xlink" xmlns:svgjs="http://svgjs.dev/svgjs" width="2000" height="1423" viewBox="0 0 2000 1423"><g transform="matrix(1,0,0,1,1.4175338330031764,0.5761133603238022)"><svg viewBox="0 0 347 247" data-background-color="#ffffff" preserveAspectRatio="xMidYMid meet" height="1423" width="2000" xmlns="http://www.w3.org/2000/svg" xmlns:xlink="http://www.w3.org/1999/xlink"><g id="tight-bounds" transform="matrix(1,0,0,1,-0.24594212002605786,-0.09999999999999432)"><svg viewBox="0 0 347.4918842400521 247.2" height="247.2" width="347.4918842400521"><g><svg viewBox="0 0 395.52 281.3664100783931" height="247.2" width="347.4918842400521"><g><svg viewBox="0 0 395.52 281.3664100783931" height="281.3664100783931" width="395.52"><g id="textblocktransform"><svg viewBox="0 0 395.52 281.3664100783931" height="281.3664100783931" width="395.52" id="textblock"><g><rect width="75.54432" height="17.94793941439347" y="254.71191487322432" fill="#004b23" data-fill-palette-color="tertiary"></rect><rect width="75.54432" height="17.94793941439347" y="254.71191487322432" x="319.97568" fill="#004b23" data-fill-palette-color="tertiary"></rect></g><g><svg viewBox="0 0 395.52 199.0212244897959" height="199.0212244897959" width="395.52"><g transform="matrix(1,0,0,1,0,0)"><svg width="395.52" viewBox="0.24 -37.55 76.56 38.529999999999994" height="199.0212244897959" data-palette-color="#004b23"><path d="M21.97-32.32L21.97-32.32Q21.97-32.08 21.51-30.91 21.04-29.74 20.26-28.03 19.48-26.32 18.48-24.19 17.48-22.07 16.41-19.85 15.33-17.63 14.31-15.48 13.28-13.33 12.43-11.6 11.57-9.86 10.99-8.67 10.4-7.47 10.25-7.18L10.25-7.18Q11.77-7.67 13.35-7.98 14.94-8.3 16.55-8.3L16.55-8.3Q17.33-8.3 18.21-8.18 19.09-8.06 19.85-7.69 20.61-7.32 21.12-6.71 21.63-6.1 21.63-5.08L21.63-5.08Q21.63-4 20.9-3.15 20.17-2.29 19.02-1.66 17.87-1.03 16.41-0.59 14.94-0.15 13.48 0.15 12.01 0.44 10.69 0.56 9.38 0.68 8.5 0.68L8.5 0.68Q7.37 0.68 6.03 0.59 4.69 0.49 3.47 0.05 2.25-0.39 1.44-1.25 0.63-2.1 0.63-3.66L0.63-3.66Q0.63-4.74 1.25-6.57 1.86-8.4 2.69-10.33 3.52-12.26 4.42-14.04 5.32-15.82 5.86-16.85L5.86-16.85Q7.52-19.92 9.2-22.97 10.89-26.03 12.5-29.15L12.5-29.15Q10.79-28.17 8.59-27.37 6.4-26.56 4.44-26.56L4.44-26.56Q3.76-26.56 3-26.76 2.25-26.95 1.64-27.32 1.03-27.69 0.63-28.27 0.24-28.86 0.24-29.64L0.24-29.64Q0.24-30.91 1.07-31.98 1.9-33.06 3.25-33.94 4.59-34.81 6.27-35.5 7.96-36.18 9.67-36.62 11.38-37.06 12.92-37.3 14.45-37.55 15.53-37.55L15.53-37.55Q18.36-37.55 20.17-36.43 21.97-35.3 21.97-32.32ZM44.28-13.96L44.28-13.96Q44.28-11.28 43.75-8.64 43.21-6.01 41.94-3.93 40.67-1.86 38.55-0.59 36.42 0.68 33.25 0.68L33.25 0.68Q30.12 0.68 28.02-0.56 25.93-1.81 24.68-3.86 23.43-5.91 22.92-8.5 22.41-11.08 22.41-13.77L22.41-13.77Q22.41-16.7 23.09-19.58L23.09-19.58Q23.24-20.36 23.65-21.75 24.07-23.14 24.73-24.49 25.39-25.83 26.24-26.81 27.1-27.78 28.12-27.78L28.12-27.78Q29.1-27.78 29.68-27.25 30.27-26.71 30.61-25.9 30.95-25.1 31.05-24.19 31.15-23.29 31.15-22.56L31.15-22.56Q31.15-21.44 30.98-20.36 30.81-19.29 30.61-18.21L30.61-18.21Q30.42-16.75 30.25-15.28 30.08-13.82 30.08-12.35L30.08-12.35Q30.08-11.62 30.15-10.72 30.22-9.81 30.52-8.98 30.81-8.15 31.35-7.59 31.88-7.03 32.86-7.03L32.86-7.03Q34.13-7.03 34.89-7.71 35.64-8.4 36.01-9.42 36.37-10.45 36.47-11.62 36.57-12.79 36.57-13.77L36.57-13.77Q36.57-15.92 36.28-17.99 35.98-20.07 35.74-22.22L35.74-22.22Q35.69-22.46 35.69-22.9L35.69-22.9Q35.69-23.63 35.94-24.37 36.18-25.1 36.62-25.68 37.06-26.27 37.69-26.64 38.33-27 39.11-27L39.11-27Q40.18-27 41.01-26.25 41.84-25.49 42.4-24.29 42.97-23.1 43.33-21.61 43.7-20.12 43.92-18.68 44.14-17.24 44.21-15.97 44.28-14.7 44.28-13.96ZM64.2-18.26L64.2-18.26Q63.52-18.21 63.03-18.38 62.54-18.55 62.06-18.75L62.06-18.75Q61.62-18.95 61.18-19.12 60.74-19.29 60.2-19.24L60.2-19.24Q59.22-19.19 58.47-18.7 57.71-18.21 57.1-17.48 56.49-16.75 56.05-15.84 55.61-14.94 55.37-14.06L55.37-14.06Q55.22-13.48 55.15-12.28 55.07-11.08 55.07-9.72L55.07-9.72Q55.02-8.3 55.02-7.03 55.02-5.76 54.93-5.03L54.93-5.03Q54.88-4.25 54.68-3.2 54.49-2.15 54.07-1.22 53.66-0.29 52.97 0.34 52.29 0.98 51.22 0.98L51.22 0.98Q50.39 0.98 49.78 0.49 49.16 0 48.75-0.81 48.33-1.61 48.07-2.69 47.8-3.76 47.65-4.88L47.65-4.88Q47.5-6.05 47.43-7.23 47.36-8.4 47.33-9.45 47.31-10.5 47.33-11.38 47.36-12.26 47.36-12.79L47.36-12.79Q47.31-14.5 47.19-16.24 47.07-17.97 47.07-19.68L47.07-19.68Q47.07-20.75 47.16-22.07 47.26-23.39 47.7-24.54 48.14-25.68 48.99-26.46 49.85-27.25 51.36-27.25L51.36-27.25Q52.19-27.25 52.78-26.71 53.36-26.17 53.73-25.39 54.1-24.61 54.29-23.73 54.49-22.85 54.54-22.12L54.54-22.12Q55.71-24.02 57.17-25.22 58.64-26.42 60.98-26.51L60.98-26.51Q62.15-26.56 63.3-26.29 64.45-26.03 65.4-25.42 66.35-24.8 66.96-23.83 67.57-22.85 67.62-21.53L67.62-21.53Q67.72-19.97 66.69-19.14 65.67-18.31 64.2-18.26ZM76.41-34.08L76.41-34.08Q76.41-33.4 76.04-32.86 75.68-32.32 75.09-31.91 74.5-31.49 73.82-31.27 73.14-31.05 72.55-31.05L72.55-31.05Q71.57-31.05 70.84-31.54 70.11-32.03 70.11-33.06L70.11-33.06Q70.11-33.79 70.48-34.35 70.84-34.91 71.38-35.28 71.92-35.64 72.6-35.84 73.28-36.04 73.92-36.04L73.92-36.04Q74.85-36.04 75.63-35.6 76.41-35.16 76.41-34.08ZM76.8-17.48L76.8-17.48Q76.8-16.8 76.8-16.04 76.8-15.28 76.75-14.6L76.75-14.6Q76.7-13.77 76.7-12.38 76.7-10.99 76.6-9.38 76.51-7.76 76.29-6.1 76.07-4.44 75.58-3.08 75.09-1.71 74.28-0.85 73.48 0 72.26 0.05L72.26 0.05Q71.33 0.1 70.7-0.68 70.06-1.46 69.65-2.71 69.23-3.96 69.04-5.49 68.84-7.03 68.74-8.47 68.64-9.91 68.64-11.13 68.64-12.35 68.64-12.94L68.64-12.94Q68.64-13.72 68.64-15.16 68.64-16.6 68.74-18.26 68.84-19.92 69.11-21.63 69.38-23.34 69.89-24.76 70.4-26.17 71.23-27.05 72.06-27.93 73.33-27.93L73.33-27.93Q74.65-27.93 75.33-26.61 76.02-25.29 76.36-23.54 76.7-21.78 76.75-20.04 76.8-18.31 76.8-17.48Z" opacity="1" transform="matrix(1,0,0,1,0,0)" fill="#004b23" class="wordmark-text-0" data-fill-palette-color="primary" id="text-0"></path></svg></g></svg></g><g transform="matrix(1,0,0,1,75.54432,246.005359082449)"><svg viewBox="0 0 244.43135999999998 35.36105099594411" height="35.36105099594411" width="244.43135999999998"><g transform="matrix(1,0,0,1,8,0)"><svg width="228.43135999999998" viewBox="3.5 -33.85 221.88 34.35" height="35.36105099594411" data-palette-color="#004b23"><path d="M23.4 0L23.4-15.4 9.45-15.4 9.45 0 3.5 0 3.5-33.85 9.45-33.85 9.45-19.75 23.4-19.75 23.4-33.85 29.35-33.85 29.35 0 23.4 0ZM55.85-23.85L55.85-12.05Q55.85-9.05 56.22-7.03 56.6-5 57.05-3.75L57.05-3.75Q57.6-2.25 58.25-1.4L58.25-1.4 53.8 0.4Q53.15-0.25 52.6-1.15L52.6-1.15Q52.15-1.95 51.75-3.08 51.35-4.2 51.25-5.75L51.25-5.75Q50.4-2.75 48.52-1.23 46.65 0.3 43.45 0.3L43.45 0.3Q41.1 0.3 39.37-0.58 37.65-1.45 36.5-3.08 35.35-4.7 34.8-7 34.25-9.3 34.25-12.1L34.25-12.1Q34.25-14.95 35.12-17.38 36-19.8 37.57-21.55 39.15-23.3 41.35-24.3 43.55-25.3 46.2-25.3L46.2-25.3Q47.7-25.3 49.32-25.08 50.95-24.85 52.35-24.6 53.75-24.35 54.72-24.13 55.7-23.9 55.85-23.85L55.85-23.85ZM44.4-3.7Q45.65-3.7 46.7-4.55 47.75-5.4 48.52-6.78 49.3-8.15 49.72-9.93 50.15-11.7 50.15-13.55L50.15-13.55 50.15-20.75Q49.65-20.9 48.65-21.1 47.65-21.3 46.85-21.3L46.85-21.3Q44.95-21.3 43.72-20.65 42.5-20 41.75-18.85 41-17.7 40.7-16.1 40.4-14.5 40.4-12.6L40.4-12.6Q40.4-10.85 40.5-9.25 40.6-7.65 41.02-6.4 41.45-5.15 42.25-4.42 43.05-3.7 44.4-3.7L44.4-3.7ZM72.7-19.7Q71.8-19.7 70.9-19.25 70-18.8 69.3-18.03 68.59-17.25 68.15-16.15 67.7-15.05 67.7-13.7L67.7-13.7 67.7 0 62 0 62-12.6Q62-15.6 61.59-17.63 61.2-19.65 60.75-20.9L60.75-20.9Q60.2-22.35 59.55-23.25L59.55-23.25 64.05-25.05Q64.5-24.5 65-23.7L65-23.7Q65.39-23 65.8-22.05 66.2-21.1 66.45-19.8L66.45-19.8Q67.45-22.7 69.34-23.98 71.25-25.25 73.65-25.25L73.65-25.25Q74.8-25.25 75.8-24.98 76.8-24.7 76.75-24.7L76.75-24.7 75.15-19.15Q75.2-19.15 74.57-19.43 73.95-19.7 72.7-19.7L72.7-19.7ZM94.39-24.9L100.19-24.9 100.29-24.5Q100.34-24.05 100.44-23.33 100.54-22.6 100.62-21.68 100.69-20.75 100.69-19.8L100.69-19.8Q100.69-14.25 99.87-10.43 99.04-6.6 97.37-4.23 95.69-1.85 93.12-0.8 90.54 0.25 87.04 0.25L87.04 0.25Q83.09 0.25 81.42-2.02 79.74-4.3 79.74-8.3L79.74-8.3 79.74-24.9 85.44-24.9 85.44-8.45Q85.44-6.35 86.19-5.05 86.94-3.75 88.74-3.75L88.74-3.75Q90.54-3.75 91.74-5.1 92.94-6.45 93.64-8.63 94.34-10.8 94.64-13.58 94.94-16.35 94.94-19.2L94.94-19.2Q94.94-20.25 94.87-21.28 94.79-22.3 94.67-23.1 94.54-23.9 94.49-24.4L94.49-24.4 94.39-24.9ZM104.69-11.85Q104.69-15.2 105.62-17.75 106.54-20.3 108.17-22.03 109.79-23.75 111.99-24.63 114.19-25.5 116.74-25.5L116.74-25.5Q118.99-25.5 120.57-24.95 122.14-24.4 123.14-23.45 124.14-22.5 124.62-21.2 125.09-19.9 125.09-18.4L125.09-18.4Q125.09-16.6 124.09-14.98 123.09-13.35 121.22-12.13 119.34-10.9 116.69-10.18 114.04-9.45 110.74-9.4L110.74-9.4Q110.89-8.25 111.22-7.23 111.54-6.2 112.17-5.43 112.79-4.65 113.79-4.2 114.79-3.75 116.29-3.75L116.29-3.75Q117.39-3.75 118.64-4 119.89-4.25 120.94-4.6L120.94-4.6Q122.19-5 123.39-5.5L123.39-5.5 124.89-1.95Q123.59-1.3 122.09-0.8L122.09-0.8Q120.79-0.35 119.09 0 117.39 0.35 115.49 0.35L115.49 0.35Q112.59 0.35 110.54-0.53 108.49-1.4 107.19-3 105.89-4.6 105.29-6.85 104.69-9.1 104.69-11.85L104.69-11.85ZM116.29-21.6Q114.64-21.6 113.57-20.83 112.49-20.05 111.84-18.82 111.19-17.6 110.92-16.07 110.64-14.55 110.59-13L110.59-13Q112.99-13.1 114.67-13.63 116.34-14.15 117.39-14.93 118.44-15.7 118.92-16.6 119.39-17.5 119.39-18.4L119.39-18.4Q119.39-19.85 118.54-20.73 117.69-21.6 116.29-21.6L116.29-21.6ZM137.19-25.5L137.19-25.5Q138.64-25.5 140.04-25.2 141.44-24.9 142.54-24.5L142.54-24.5Q143.84-24.05 144.94-23.55L144.94-23.55 143.24-19.65Q142.24-20.1 141.24-20.45L141.24-20.45Q140.39-20.75 139.36-21.03 138.34-21.3 137.34-21.3L137.34-21.3Q136.19-21.3 135.36-20.75 134.54-20.2 134.54-19.1L134.54-19.1Q134.54-16.25 138.69-14.65L138.69-14.65Q140.24-14.05 141.49-13.38 142.74-12.7 143.61-11.8 144.49-10.9 144.94-9.73 145.39-8.55 145.39-6.95L145.39-6.95Q145.39-5.55 144.81-4.2 144.24-2.85 143.11-1.8 141.99-0.75 140.36-0.13 138.74 0.5 136.69 0.5L136.69 0.5Q135.04 0.5 133.44 0.13 131.84-0.25 130.56-0.7 129.29-1.15 128.54-1.55L128.54-1.55 127.79-1.9 129.64-6.1 130.29-5.75Q130.94-5.35 131.94-4.9 132.94-4.45 134.09-4.08 135.24-3.7 136.19-3.7L136.19-3.7Q137.94-3.7 138.79-4.4 139.64-5.1 139.64-6.25L139.64-6.25Q139.64-7.55 138.71-8.63 137.79-9.7 135.94-10.4L135.94-10.4Q132.09-11.85 130.41-13.7 128.74-15.55 128.74-18.5L128.74-18.5Q128.74-19.9 129.39-21.18 130.04-22.45 131.16-23.43 132.29-24.4 133.84-24.95 135.39-25.5 137.19-25.5ZM147.69-20.85L147.69-24.9 152.19-24.9 153.19-30.75 157.89-31.8 157.89-24.9 164.04-24.9 163.34-20.85 157.89-20.85 157.89-6.05Q157.89-4.75 158.59-4.38 159.29-4 160.14-4L160.14-4Q160.84-4 161.54-4.1 162.24-4.2 162.79-4.35L162.79-4.35Q163.44-4.5 164.04-4.7L164.04-4.7 164.99-0.95 164.54-0.8Q164.09-0.6 163.21-0.38 162.34-0.15 161.16 0.03 159.99 0.2 158.59 0.2L158.59 0.2Q157.19 0.2 156.01-0.1 154.84-0.4 153.99-1.07 153.14-1.75 152.66-2.8 152.19-3.85 152.19-5.4L152.19-5.4 152.19-20.85 147.69-20.85ZM166.23-11.85Q166.23-15.2 167.16-17.75 168.08-20.3 169.71-22.03 171.33-23.75 173.53-24.63 175.73-25.5 178.28-25.5L178.28-25.5Q180.53-25.5 182.11-24.95 183.68-24.4 184.68-23.45 185.68-22.5 186.16-21.2 186.63-19.9 186.63-18.4L186.63-18.4Q186.63-16.6 185.63-14.98 184.63-13.35 182.76-12.13 180.88-10.9 178.23-10.18 175.58-9.45 172.28-9.4L172.28-9.4Q172.43-8.25 172.76-7.23 173.08-6.2 173.71-5.43 174.33-4.65 175.33-4.2 176.33-3.75 177.83-3.75L177.83-3.75Q178.93-3.75 180.18-4 181.43-4.25 182.48-4.6L182.48-4.6Q183.73-5 184.93-5.5L184.93-5.5 186.43-1.95Q185.13-1.3 183.63-0.8L183.63-0.8Q182.33-0.35 180.63 0 178.93 0.35 177.03 0.35L177.03 0.35Q174.13 0.35 172.08-0.53 170.03-1.4 168.73-3 167.43-4.6 166.83-6.85 166.23-9.1 166.23-11.85L166.23-11.85ZM177.83-21.6Q176.18-21.6 175.11-20.83 174.03-20.05 173.38-18.82 172.73-17.6 172.46-16.07 172.18-14.55 172.13-13L172.13-13Q174.53-13.1 176.21-13.63 177.88-14.15 178.93-14.93 179.98-15.7 180.46-16.6 180.93-17.5 180.93-18.4L180.93-18.4Q180.93-19.85 180.08-20.73 179.23-21.6 177.83-21.6L177.83-21.6ZM202.53-19.7Q201.63-19.7 200.73-19.25 199.83-18.8 199.13-18.03 198.43-17.25 197.98-16.15 197.53-15.05 197.53-13.7L197.53-13.7 197.53 0 191.83 0 191.83-12.6Q191.83-15.6 191.43-17.63 191.03-19.65 190.58-20.9L190.58-20.9Q190.03-22.35 189.38-23.25L189.38-23.25 193.88-25.05Q194.33-24.5 194.83-23.7L194.83-23.7Q195.23-23 195.63-22.05 196.03-21.1 196.28-19.8L196.28-19.8Q197.28-22.7 199.18-23.98 201.08-25.25 203.48-25.25L203.48-25.25Q204.63-25.25 205.63-24.98 206.63-24.7 206.58-24.7L206.58-24.7 204.98-19.15Q205.03-19.15 204.41-19.43 203.78-19.7 202.53-19.7L202.53-19.7ZM217.18-25.5L217.18-25.5Q218.63-25.5 220.03-25.2 221.43-24.9 222.53-24.5L222.53-24.5Q223.83-24.05 224.93-23.55L224.93-23.55 223.23-19.65Q222.23-20.1 221.23-20.45L221.23-20.45Q220.38-20.75 219.35-21.03 218.33-21.3 217.33-21.3L217.33-21.3Q216.18-21.3 215.35-20.75 214.53-20.2 214.53-19.1L214.53-19.1Q214.53-16.25 218.68-14.65L218.68-14.65Q220.23-14.05 221.48-13.38 222.73-12.7 223.6-11.8 224.48-10.9 224.93-9.73 225.38-8.55 225.38-6.95L225.38-6.95Q225.38-5.55 224.8-4.2 224.23-2.85 223.1-1.8 221.98-0.75 220.35-0.13 218.73 0.5 216.68 0.5L216.68 0.5Q215.03 0.5 213.43 0.13 211.83-0.25 210.55-0.7 209.28-1.15 208.53-1.55L208.53-1.55 207.78-1.9 209.63-6.1 210.28-5.75Q210.93-5.35 211.93-4.9 212.93-4.45 214.08-4.08 215.23-3.7 216.18-3.7L216.18-3.7Q217.93-3.7 218.78-4.4 219.63-5.1 219.63-6.25L219.63-6.25Q219.63-7.55 218.7-8.63 217.78-9.7 215.93-10.4L215.93-10.4Q212.08-11.85 210.4-13.7 208.73-15.55 208.73-18.5L208.73-18.5Q208.73-19.9 209.38-21.18 210.03-22.45 211.15-23.43 212.28-24.4 213.83-24.95 215.38-25.5 217.18-25.5Z" opacity="1" transform="matrix(1,0,0,1,0,0)" fill="#004b23" class="slogan-text-1" data-fill-palette-color="secondary" id="text-1"></path></svg></g></svg></g></svg></g></svg></g><g></g></svg></g><defs></defs></svg><rect width="347.4918842400521" height="247.2" fill="none" stroke="none" visibility="hidden"></rect></g></svg></g></svg>