<svg xmlns="http://www.w3.org/2000/svg" version="1.1" xmlns:xlink="http://www.w3.org/1999/xlink" xmlns:svgjs="http://svgjs.dev/svgjs" width="128" height="128" viewBox="0 0 128 128"><g transform="matrix(0.4577777777777778,0,0,0.4577777777777778,34.637804868609464,12.333870967741937)"><svg viewBox="0 0 88 155" data-background-color="#ffffff" preserveAspectRatio="xMidYMid meet" height="225" width="128" xmlns="http://www.w3.org/2000/svg" xmlns:xlink="http://www.w3.org/1999/xlink"><g id="tight-bounds" transform="matrix(1,0,0,1,0.09674329501915224,0.25)"><svg viewBox="0 0 87.8065134099617 154.50000000000003" height="154.50000000000003" width="87.8065134099617"><g><svg viewBox="0 0 87.8065134099617 154.50000000000003" height="154.50000000000003" width="87.8065134099617"><g><svg viewBox="0 0 87.8065134099617 154.50000000000003" height="154.50000000000003" width="87.8065134099617"><g id="textblocktransform"><svg viewBox="0 0 87.8065134099617 154.50000000000003" height="154.50000000000003" width="87.8065134099617" id="textblock"><g><svg viewBox="0 0 87.8065134099617 154.50000000000003" height="154.50000000000003" width="87.8065134099617"><g transform="matrix(1,0,0,1,0,0)"><svg width="87.8065134099617" viewBox="0.24 -37.55 21.73 38.23" height="154.50000000000003" data-palette-color="#004b23"><path d="M21.97-32.32L21.97-32.32Q21.97-32.08 21.51-30.91 21.04-29.74 20.26-28.03 19.48-26.32 18.48-24.19 17.48-22.07 16.41-19.85 15.33-17.63 14.31-15.48 13.28-13.33 12.43-11.6 11.57-9.86 10.99-8.67 10.4-7.47 10.25-7.18L10.25-7.18Q11.77-7.67 13.35-7.98 14.94-8.3 16.55-8.3L16.55-8.3Q17.33-8.3 18.21-8.18 19.09-8.06 19.85-7.69 20.61-7.32 21.12-6.71 21.63-6.1 21.63-5.08L21.63-5.08Q21.63-4 20.9-3.15 20.17-2.29 19.02-1.66 17.87-1.03 16.41-0.59 14.94-0.15 13.48 0.15 12.01 0.44 10.69 0.56 9.38 0.68 8.5 0.68L8.5 0.68Q7.37 0.68 6.03 0.59 4.69 0.49 3.47 0.05 2.25-0.39 1.44-1.25 0.63-2.1 0.63-3.66L0.63-3.66Q0.63-4.74 1.25-6.57 1.86-8.4 2.69-10.33 3.52-12.26 4.42-14.04 5.32-15.82 5.86-16.85L5.86-16.85Q7.52-19.92 9.2-22.97 10.89-26.03 12.5-29.15L12.5-29.15Q10.79-28.17 8.59-27.37 6.4-26.56 4.44-26.56L4.44-26.56Q3.76-26.56 3-26.76 2.25-26.95 1.64-27.32 1.03-27.69 0.63-28.27 0.24-28.86 0.24-29.64L0.24-29.64Q0.24-30.91 1.07-31.98 1.9-33.06 3.25-33.94 4.59-34.81 6.27-35.5 7.96-36.18 9.67-36.62 11.38-37.06 12.92-37.3 14.45-37.55 15.53-37.55L15.53-37.55Q18.36-37.55 20.17-36.43 21.97-35.3 21.97-32.32Z" opacity="1" transform="matrix(1,0,0,1,0,0)" fill="#004b23" class="wordmark-text-0" data-fill-palette-color="primary" id="text-0"></path></svg></g></svg></g></svg></g></svg></g><g></g></svg></g><defs></defs></svg><rect width="87.8065134099617" height="154.50000000000003" fill="none" stroke="none" visibility="hidden"></rect></g></svg></g></svg>